<?xml version="1.0" standalone="no"?>
<!DOCTYPE svg PUBLIC "-//W3C//DTD SVG 20010904//EN"
 "http://www.w3.org/TR/2001/REC-SVG-20010904/DTD/svg10.dtd">
<svg version="1.0" xmlns="http://www.w3.org/2000/svg"
 width="900.000000pt" height="900.000000pt" viewBox="0 0 900.000000 900.000000"
 preserveAspectRatio="xMidYMid meet">

<g transform="translate(0.000000,900.000000) scale(0.100000,-0.100000)"
fill="#000000" stroke="none">
<path d="M3585 8988 c-22 -6 -105 -26 -185 -44 -213 -51 -468 -133 -680 -219
-89 -37 -405 -190 -460 -224 -25 -15 -79 -48 -120 -72 -109 -64 -367 -236
-409 -274 -20 -17 -62 -51 -95 -75 -32 -23 -66 -50 -75 -59 -9 -9 -50 -45 -91
-81 -102 -90 -322 -311 -405 -406 -38 -43 -79 -90 -91 -104 -93 -105 -301
-402 -393 -560 -25 -41 -56 -95 -71 -120 -190 -314 -397 -871 -485 -1306 l-25
-125 0 -815 0 -814 30 -143 c55 -259 128 -504 227 -757 62 -157 294 -625 331
-666 5 -6 17 -25 26 -43 26 -49 231 -348 251 -366 7 -5 33 -38 60 -73 26 -35
57 -74 69 -87 11 -13 44 -50 71 -81 141 -161 451 -456 573 -546 31 -23 68 -52
81 -65 13 -12 71 -55 130 -95 58 -39 108 -75 111 -78 3 -4 12 -10 20 -13 8 -4
27 -15 42 -25 15 -9 64 -39 110 -66 46 -27 99 -59 118 -71 43 -27 264 -137
385 -192 227 -103 534 -206 815 -272 226 -53 180 -51 1029 -51 552 0 813 3
855 11 426 80 882 237 1263 435 172 89 533 313 541 335 2 5 10 9 18 9 8 0 14
5 14 10 0 6 6 10 14 10 8 0 16 4 18 9 2 5 41 37 88 72 47 34 90 68 95 74 6 6
46 41 90 77 94 78 418 404 495 498 29 36 56 67 60 70 3 3 41 52 84 110 42 58
83 113 91 123 8 9 15 21 15 26 0 5 4 11 8 13 8 3 116 165 169 253 282 470 486
1016 579 1550 24 139 24 147 24 812 l0 671 -30 164 c-81 432 -218 843 -408
1223 -47 94 -104 196 -213 380 -76 128 -300 430 -432 580 -65 74 -330 342
-409 413 -272 245 -607 471 -963 651 -197 100 -232 115 -427 192 -191 74 -509
168 -712 209 -94 19 -133 20 -940 19 -513 -1 -857 -5 -881 -11z m3668 -1301
c29 -50 37 -74 37 -113 0 -65 32 -179 74 -262 18 -37 43 -102 55 -146 21 -75
21 -81 5 -121 -12 -33 -14 -55 -7 -101 6 -40 5 -82 -4 -129 -22 -126 -11 -247
33 -362 13 -34 16 -64 11 -146 -5 -94 -11 -125 -39 -199 -5 -15 -30 -42 -54
-61 -51 -40 -101 -104 -117 -151 -5 -17 -22 -49 -37 -71 -27 -42 -44 -93 -80
-237 -17 -71 -19 -95 -11 -125 21 -75 15 -103 -37 -167 -26 -32 -50 -64 -53
-70 -23 -43 -29 -57 -29 -69 0 -8 -9 -22 -19 -31 -11 -10 -21 -28 -23 -39 -2
-14 -18 -29 -43 -42 -23 -11 -70 -48 -104 -81 -56 -54 -70 -63 -114 -68 -72
-10 -101 -28 -159 -102 -28 -36 -76 -82 -107 -102 -44 -29 -61 -49 -80 -89
l-25 -53 -50 0 c-58 0 -90 -17 -152 -77 -30 -29 -45 -55 -58 -101 -10 -37 -26
-68 -40 -79 -12 -10 -28 -28 -35 -41 -7 -13 -21 -22 -34 -22 -12 0 -57 -20
-99 -45 -43 -25 -81 -45 -86 -45 -5 0 -21 10 -36 21 l-27 21 51 47 c46 40 53
52 57 93 6 56 -9 101 -40 116 -60 30 -203 39 -347 22 -116 -14 -124 -16 -160
-46 l-31 -27 -92 18 c-106 20 -147 44 -147 83 0 57 62 104 155 117 28 4 75 15
106 25 31 11 80 22 110 25 86 10 96 14 102 37 12 43 -15 64 -90 72 -81 8 -108
24 -116 66 -4 17 -20 45 -36 61 -25 25 -37 29 -83 29 -57 0 -81 -14 -111 -62
-10 -16 -27 -28 -44 -30 -24 -3 -31 3 -48 36 -24 47 -64 78 -100 79 -35 0 -39
14 -25 96 14 83 7 122 -26 153 -13 13 -24 33 -24 44 0 27 74 129 123 169 21
17 60 49 87 73 78 65 96 59 175 -61 22 -34 47 -63 56 -65 9 -2 70 32 135 76
66 43 145 94 177 113 35 20 122 96 212 184 84 83 208 202 276 266 120 112 125
118 146 185 26 79 42 104 135 207 37 41 75 91 83 111 9 20 60 86 115 145 77
84 107 110 132 115 51 9 147 59 216 111 136 102 221 258 242 444 6 47 19 115
30 151 12 35 23 91 26 125 4 42 16 76 37 113 17 28 34 52 37 52 3 0 23 -29 43
-63z m-5429 -114 c6 -55 46 -233 88 -393 11 -41 27 -106 37 -145 10 -38 39
-131 65 -205 26 -74 56 -164 66 -199 11 -35 26 -71 35 -81 16 -18 78 -40 113
-40 14 0 40 -25 80 -78 79 -104 85 -116 77 -163 -8 -49 6 -74 81 -145 30 -28
54 -56 54 -62 0 -6 -21 -30 -46 -54 -57 -53 -74 -85 -74 -138 0 -100 47 -131
209 -140 l114 -7 31 -39 c42 -52 54 -61 127 -101 56 -30 77 -36 181 -45 104
-10 120 -9 142 6 36 23 51 20 78 -13 30 -37 103 -86 148 -98 49 -14 83 1 103
42 31 66 82 42 198 -93 64 -75 74 -83 103 -80 27 3 33 9 46 47 8 25 31 62 51
83 49 51 88 52 135 2 19 -19 34 -42 34 -49 0 -8 22 -42 48 -77 60 -78 81 -138
89 -249 7 -97 -3 -138 -50 -213 -30 -47 -30 -49 -17 -95 8 -25 14 -68 14 -96
1 -45 -1 -50 -22 -53 -36 -5 -72 25 -97 81 -26 59 -48 81 -87 91 -15 3 -43 20
-62 36 -18 17 -41 30 -50 30 -23 0 -91 -65 -106 -100 -16 -38 -116 -103 -208
-134 -118 -40 -177 -89 -254 -211 -91 -143 -209 -255 -267 -255 -10 0 -57 28
-105 62 -49 35 -100 69 -115 77 -14 8 -62 42 -106 77 -111 86 -145 128 -145
177 0 34 -28 66 -110 127 -38 29 -70 58 -70 66 0 8 9 31 20 51 11 21 20 49 20
63 0 35 -47 107 -124 189 -79 84 -85 95 -92 173 -8 73 -33 122 -75 144 -37 19
-59 12 -87 -26 -24 -31 -59 -39 -80 -18 -15 15 -16 132 -1 161 7 12 27 39 47
61 28 32 33 44 28 70 -13 71 -37 141 -62 184 -71 121 -104 224 -104 318 0 27
-9 81 -19 119 -33 120 -62 427 -59 635 1 102 -4 288 -11 414 -11 188 -11 242
-1 298 16 84 35 89 44 11z m610 -1289 c3 -8 2 -12 -4 -9 -6 3 -10 10 -10 16 0
14 7 11 14 -7z m-447 -2213 c10 -16 37 -44 61 -60 35 -26 42 -37 42 -65 0 -18
7 -53 15 -76 8 -23 15 -55 15 -70 0 -15 9 -49 21 -75 13 -30 24 -84 29 -145 5
-53 12 -120 16 -148 5 -43 4 -52 -8 -52 -15 0 -43 55 -68 135 -7 22 -30 74
-51 115 -65 130 -115 286 -124 383 -6 83 -6 87 13 87 11 0 28 -13 39 -29z
m4828 -92 c18 -55 -24 -308 -56 -343 -14 -16 -37 13 -41 52 -3 20 -11 57 -18
82 -18 64 -7 115 35 154 18 17 38 41 44 54 15 28 28 28 36 1z m-4518 -237 c15
-15 43 -38 61 -51 57 -40 79 -101 82 -226 0 -11 -4 -103 -9 -204 -9 -182 -14
-207 -46 -198 -35 11 -109 207 -120 317 -3 30 -10 87 -15 125 -5 39 -11 114
-14 168 -4 89 -3 97 14 97 10 0 31 -13 47 -28z m4350 -2 c6 -14 17 -92 24
-173 9 -117 9 -154 -1 -175 -7 -15 -20 -56 -30 -92 -39 -134 -97 -285 -111
-285 -17 0 -25 28 -39 145 -6 52 -16 115 -21 140 -9 37 -7 58 10 120 12 41 21
93 21 116 0 91 18 146 63 192 46 47 66 50 84 12z m-4062 -230 c10 -11 23 -20
29 -20 6 0 38 -17 71 -38 33 -20 72 -44 88 -51 15 -8 30 -24 33 -36 7 -28 -11
-96 -41 -155 -40 -78 -96 -230 -107 -289 -6 -31 -8 -98 -5 -148 7 -113 0 -117
-72 -35 -38 43 -56 75 -74 132 -23 70 -24 87 -22 280 2 175 14 318 30 368 7
19 50 14 70 -8z m3789 -27 c32 -63 66 -286 66 -429 0 -128 -54 -299 -130 -414
-158 -238 -174 -260 -193 -260 -17 0 -18 5 -12 45 3 25 13 61 20 79 41 98 35
421 -10 520 -80 175 -87 204 -65 244 5 9 18 37 28 62 17 41 28 50 114 98 53
29 101 59 108 67 21 25 58 18 74 -12z m-1997 -85 c20 -6 58 -37 98 -80 51 -55
69 -83 81 -126 27 -90 11 -181 -46 -272 -68 -109 -169 -379 -210 -559 -25
-111 -27 -131 -18 -188 20 -118 -12 -94 -89 66 -69 144 -134 342 -175 535 -30
142 -31 152 -19 225 18 106 55 199 102 256 22 27 46 63 54 81 14 33 55 62 110
74 31 8 58 5 112 -12z m744 -9 c43 -11 62 -31 79 -83 7 -22 21 -53 30 -70 28
-49 90 -295 90 -356 -1 -56 -76 -295 -149 -470 -17 -41 -31 -78 -31 -83 0 -4
-24 -47 -52 -96 -29 -49 -61 -103 -70 -120 -11 -20 -25 -31 -39 -31 -20 0 -21
3 -15 47 17 123 17 215 2 343 -17 142 -73 375 -106 440 -20 39 -44 100 -61
157 -12 38 13 106 66 186 20 28 41 61 48 72 7 11 27 35 45 53 30 32 35 34 80
27 26 -3 63 -10 83 -16z m-2092 -73 c142 -32 152 -46 132 -196 -28 -211 -39
-423 -30 -560 9 -142 20 -216 38 -263 18 -47 14 -67 -13 -67 -18 0 -47 24
-107 90 -45 49 -93 108 -107 131 -31 52 -51 136 -52 214 0 33 -4 74 -9 92 -5
17 -12 149 -16 293 -5 203 -3 265 6 277 15 17 43 15 158 -11z m749 7 c16 -4
31 -23 47 -57 41 -92 46 -122 29 -195 -30 -130 -56 -226 -66 -244 -10 -19 -23
-81 -59 -277 -40 -213 -25 -326 76 -620 l37 -104 -21 -18 c-17 -13 -27 -15
-49 -7 -31 12 -116 100 -165 171 -17 26 -54 74 -81 107 -88 109 -173 354 -202
583 -23 185 -16 288 25 393 39 100 98 202 131 227 34 25 247 55 298 41z m2075
-28 c21 -21 36 -123 58 -390 10 -122 10 -153 -5 -240 -15 -89 -24 -110 -82
-211 -35 -62 -64 -116 -64 -121 0 -5 -18 -30 -40 -57 -22 -26 -40 -54 -40 -61
0 -6 -10 -20 -21 -31 -12 -10 -35 -43 -51 -72 -17 -29 -63 -85 -104 -126 -41
-40 -74 -76 -74 -80 0 -18 -49 -58 -65 -52 -22 8 -14 47 30 143 18 39 40 106
50 150 9 43 28 99 41 124 23 46 24 53 24 275 0 207 -2 233 -20 273 -34 74 -63
209 -56 260 8 59 54 191 74 214 13 15 35 17 173 17 126 0 161 -3 172 -15z
m-3129 -1704 c24 -25 27 -36 29 -104 1 -42 -2 -78 -7 -79 -13 -4 -54 105 -62
164 -8 56 1 60 40 19z m3616 -43 c0 -73 -37 -168 -65 -168 -32 0 -11 163 25
192 33 27 40 22 40 -24z m-120 -213 c23 -100 23 -152 -3 -225 -15 -43 -85
-154 -124 -195 l-28 -30 -3 40 c-6 63 18 205 44 260 27 58 64 177 64 204 0 27
11 52 20 46 4 -3 18 -48 30 -100z m-3380 8 c7 -21 18 -45 25 -53 21 -24 85
-150 85 -166 0 -8 11 -31 24 -52 20 -31 23 -47 21 -102 -2 -35 -8 -66 -13 -68
-12 -4 -87 127 -140 244 -37 80 -42 100 -42 162 0 56 3 72 14 72 8 0 20 -17
26 -37z m1953 -195 c30 -62 65 -142 77 -177 12 -36 25 -72 30 -82 25 -46 88
-333 105 -480 10 -86 39 -80 -373 -70 -64 2 -67 18 -48 236 29 317 48 430 107
648 18 66 39 50 102 -75z m-1684 61 c6 -18 11 -44 11 -60 0 -36 27 -140 51
-196 10 -25 19 -55 19 -67 0 -13 10 -38 23 -57 12 -19 38 -63 56 -99 18 -36
41 -74 51 -85 9 -11 20 -32 23 -46 4 -14 20 -43 37 -64 16 -21 30 -42 30 -47
0 -54 -181 64 -254 166 -17 23 -47 60 -67 82 -34 38 -38 49 -44 117 -7 74 -4
137 13 282 13 108 30 133 51 74z m2825 -41 c2 -18 14 -94 25 -168 27 -179 20
-244 -36 -326 -22 -33 -44 -70 -48 -84 -22 -70 -146 -174 -221 -186 -67 -10
-74 4 -34 68 60 95 90 153 90 175 0 27 72 168 102 200 16 18 24 41 29 86 3 34
16 89 27 122 12 33 27 79 32 103 13 50 27 54 34 10z m-1739 -38 c22 -60 45
-173 45 -221 0 -25 7 -68 16 -95 8 -27 24 -91 34 -142 14 -68 30 -113 60 -164
22 -38 40 -75 40 -81 0 -7 9 -27 21 -46 11 -18 19 -35 17 -37 -2 -1 -64 -8
-137 -15 -157 -14 -191 -6 -250 53 -37 36 -58 89 -45 110 4 6 11 56 16 112 5
55 13 142 17 191 5 57 20 122 39 178 35 99 89 200 104 195 6 -2 16 -19 23 -38z
m-638 -157 c34 -107 64 -186 83 -213 9 -14 25 -45 34 -70 10 -24 32 -61 49
-81 68 -78 81 -95 99 -126 11 -18 18 -42 16 -55 -3 -22 -7 -23 -68 -20 -86 4
-167 22 -182 40 -24 28 -76 199 -98 320 -10 59 -7 110 15 237 2 11 4 23 4 28
1 4 7 7 14 7 7 0 22 -30 34 -67z m1937 5 c22 -74 37 -174 32 -205 -11 -63 -56
-193 -87 -255 -23 -46 -38 -63 -65 -74 -34 -14 -261 -37 -276 -27 -28 17 5 62
124 169 31 29 64 67 73 85 10 19 25 43 35 54 22 26 92 157 115 218 17 45 41
62 49 35z"/>
</g>
</svg>
